Coordinates
version=1
nRows=19
nColumns=24
inDegrees=yes

Units are S.I. units (second, meters, Newtons, ...)
Angles are in degrees.

endheader
time	pelvis_tilt	pelvis_list	pelvis_rotation	pelvis_tx	pelvis_ty	pelvis_tz	hip_flexion_r	hip_adduction_r	hip_rotation_r	knee_angle_r	ankle_angle_r	subtalar_angle_r	mtp_angle_r	hip_flexion_l	hip_adduction_l	hip_rotation_l	knee_angle_l	ankle_angle_l	subtalar_angle_l	mtp_angle_l	lumbar_extension	lumbar_bending	lumbar_rotation
      3.32500000	    -20.50208189	      8.81347043	     -4.33982047	     -2.31351754	     -0.03466533	     -0.26700259	     18.34080445	     -8.38422976	      1.50727919	    -57.16679936	    -38.60981940	    -16.65925587	      0.21582024	     41.90344840	     11.34288407	      5.06987972	    -26.86231600	     17.13221657	      3.40279954	    -83.41024842	     14.76745720	     -8.84276810	      7.21386910
      3.33000000	    -20.57144918	      8.94261015	     -4.44617441	     -2.30619355	     -0.03323888	     -0.26720815	     19.69884637	     -8.16418702	      1.85205744	    -58.79737243	    -36.81176239	    -18.13512456	     -3.05063885	     41.11202388	     11.34995863	      4.71513724	    -26.25788957	     17.68103044	      3.91292331	    -83.87298269	     14.91163648	     -8.89865241	      7.07968213
      3.33500000	    -20.60746618	      9.05796821	     -4.55524789	     -2.29886724	     -0.03175101	     -0.26733841	     20.99879694	     -7.90820786	      2.19035790	    -60.31058008	    -34.83991882	    -19.43864109	     -6.45956089	     40.25798974	     11.34956278	      4.37811692	    -25.60581582	     18.23233915	      4.40408040	    -84.53760135	     15.02561184	     -8.95020689	      6.95688196
      3.34000000	    -20.69680637	      9.15664818	     -4.69756883	     -2.29164996	     -0.03034835	     -0.26735972	     22.34833868	     -7.57625503	      2.65003085	    -61.70089668	    -32.92155764	    -20.49701222	     -8.82021559	     39.49004717	     11.28364707	      3.89011760	    -24.99061420	     18.75256793	      5.01815765	    -84.93722289	     15.19315837	     -8.97572365	      6.88018646
      3.34500000	    -20.60706803	      9.28029212	     -4.77354163	     -2.28422603	     -0.02862498	     -0.26743634	     23.45902714	     -7.33986801	      2.87373130	    -62.98324852	    -30.63547099	    -21.47799394	    -13.42591536	     38.38664038	     11.37707522	      3.80066920	    -24.12937956	     19.10222309	      5.23128879	    -85.63250018	     15.18748868	     -9.06921760	      6.74038892
      3.35000000	    -20.62102436	      9.35908085	     -4.86334115	     -2.27692866	     -0.02706392	     -0.26745559	     24.66388165	     -7.01035610	      3.19049804	    -64.13534211	    -28.57119525	    -22.27452234	    -16.72374178	     37.43635614	     11.39013891	      3.61158062	    -23.34002671	     19.40640208	      5.55903128	    -85.95552504	     15.28273360	     -9.10333698	      6.62054412
      3.35500000	    -20.57237698	      9.43905882	     -4.93306036	     -2.26957566	     -0.02540868	     -0.26749951	     25.76368967	     -6.71250792	      3.46446125	    -65.15656585	    -26.54120785	    -22.86918854	    -19.86144450	     36.36561361	     11.45099526	      3.54181371	    -22.45405400	     19.58392706	      5.75703600	    -86.05919054	     15.31094026	     -9.15284492	      6.49420292
      3.36000000	    -20.52454565	      9.52320436	     -5.01445065	     -2.26223138	     -0.02376963	     -0.26762005	     26.81206703	     -6.42313165	      3.84572039	    -65.96649151	    -25.37090773	    -23.60641834	    -19.80175087	     35.28717271	     11.52638239	      3.47619125	    -21.53849072	     19.67744829	      5.89660827	    -86.03995670	     15.34618861	     -9.19108379	      6.39250738
      3.36500000	    -20.46386749	      9.59903352	     -5.08356658	     -2.25488324	     -0.02212494	     -0.26777978	     27.82760255	     -6.14632589	      4.19707175	    -66.69591889	    -24.12495638	    -24.07652788	    -19.90571393	     34.15627109	     11.62846244	      3.56248522	    -20.54904870	     19.67257654	      5.88946991	    -86.02011382	     15.36490894	     -9.22168949	      6.30148033
      3.37000000	    -20.35074335	      9.51397617	     -5.05730281	     -2.24753507	     -0.02037434	     -0.26778304	     28.76472379	     -5.75460105	      4.10742349	    -67.45762106	    -21.42504275	    -24.06720433	    -26.58925088	     32.94427978	     11.62839951	      3.87408019	    -19.58896822	     19.52464695	      5.92657806	    -85.03827477	     15.29130146	     -9.15631409	      6.05929014
      3.37500000	    -20.30004748	      9.53417003	     -5.06243815	     -2.24019268	     -0.01879935	     -0.26796720	     29.72428054	     -5.48168442	      4.33392350	    -67.99223135	    -20.26335661	    -24.22204320	    -26.36483174	     31.81278276	     11.70868779	      4.03406466	    -18.58496866	     19.45377599	      5.90858986	    -85.09279731	     15.30555836	     -9.15856632	      5.91067072
      3.38000000	    -20.19783963	      9.47806343	     -5.02600964	     -2.23285906	     -0.01712878	     -0.26824362	     30.57089163	     -5.18294399	      4.44777981	    -68.38870550	    -19.18940573	    -24.33252463	    -26.14711179	     30.58803180	     11.76780157	      4.43404340	    -17.53239674	     19.26511353	      5.71314333	    -85.09553064	     15.24087008	     -9.09583275	      5.68279648
      3.38500000	    -20.09720440	      9.37964852	     -4.96334849	     -2.22554073	     -0.01548761	     -0.26852675	     31.38333593	     -4.87547665	      4.48579769	    -68.68256454	    -18.13669026	    -24.34313358	    -25.81486594	     29.36913474	     11.79184577	      4.88587125	    -16.49893509	     19.03754187	      5.51391034	    -85.00708612	     15.16762344	     -9.00280784	      5.43716207
      3.39000000	    -19.99021607	      9.25924215	     -4.89003475	     -2.21824551	     -0.01387324	     -0.26885232	     32.15976585	     -4.57377744	      4.48143840	    -68.86739231	    -17.19418106	    -24.33832119	    -25.12952156	     28.12412907	     11.80924084	      5.52463099	    -15.43954600	     18.70560015	      5.16309181	    -84.66634568	     15.07871014	     -8.89048483	      5.21702985
      3.39500000	    -19.91701283	      9.10114391	     -4.79619118	     -2.21099077	     -0.01229079	     -0.26945286	     32.87994708	     -4.27870711	      4.62345350	    -68.78048565	    -17.47879019	    -24.56523232	    -19.07265358	     26.94057381	     11.81987086	      6.20679834	    -14.44554912	     17.82795542	      4.74960603	    -81.44358102	     15.01025738	     -8.70801985	      4.92305137
      3.40000000	    -19.84407644	      8.88101268	     -4.63555838	     -2.20384124	     -0.01075211	     -0.26980785	     33.61602209	     -3.94042434	      4.48813805	    -68.76184438	    -16.40677876	    -24.24730185	    -18.30122680	     25.82537768	     11.72889495	      6.70521188	    -13.55507400	     17.58022531	      4.61049733	    -81.59277666	     14.91153966	     -8.52756411	      4.56931841
      3.40500000	    -19.84993820	      8.57712148	     -4.41158356	     -2.19670947	     -0.00924259	     -0.27057974	     34.31327287	     -3.59988579	      4.41303961	    -68.35958770	    -17.02065224	    -24.73275886	    -11.67263336	     24.74343577	     11.62330830	      7.69736201	    -12.60081189	     17.01473442	      3.96983943	    -80.92675461	     14.87632610	     -8.22753461	      4.13859949
      3.41000000	    -19.77332198	      8.35964867	     -4.29335573	     -2.18962299	     -0.00778458	     -0.27099569	     34.98013502	     -3.27176836	      4.40439223	    -68.04712828	    -16.50152130	    -24.48890788	     -8.27813932	     23.63189401	     11.51495169	      8.32554559	    -11.70781016	     16.53842570	      3.60872976	    -80.30003837	     14.77287707	     -8.02296522	      3.85539289
      3.41500000	    -19.75174352	      8.09645357	     -4.13557266	     -2.18263554	     -0.00640400	     -0.27143887	     35.66631528	     -2.92129009	      4.34052749	    -67.58836202	    -16.18534416	    -24.38255660	     -4.52347238	     22.64305377	     11.35550694	      8.87312379	    -10.92739663	     16.06372818	      3.36254294	    -79.46556352	     14.70538550	     -7.78410062	      3.53326268
